
<svg xmlns="http://www.w3.org/2000/svg" viewBox="0 0 24 24" fill="currentColor">
  <path d="M8.29 20c7.547 0 11.675-6.155 11.675-11.49 0-.175 0-.349-.012-.522A8.18 8.18 0 0022 5.92a8.19 8.19 0 01-2.357.637 4.077 4.077 0 001.804-2.23 8.19 8.19 0 01-2.605.982A4.065 4.065 0 0015.448 4c-2.266 0-4.104 1.82-4.104 4.06 0 .318.036.63.106.928A11.57 11.57 0 013 5.137a4.03 4.03 0 00-.555 2.042c0 1.408.725 2.65 1.824 3.377a4.1 4.1 0 01-1.86-.512v.05c0 1.965 1.41 3.606 3.285 3.975a4.106 4.106 0 01-1.853.07 4.077 4.077 0 003.818 2.823A8.205 8.205 0 012 18.407 11.616 11.616 0 008.29 20"/>
</svg>
